<svg width="24" height="24" viewBox="0 0 24 24" fill="none" xmlns="http://www.w3.org/2000/svg">
<path d="M19.875 10.858H6.5325L10.6163 5.87555C10.8072 5.64218 10.8991 5.34131 10.8716 5.03914C10.8442 4.73697 10.6997 4.45823 10.47 4.26426C10.2403 4.0703 9.94407 3.97698 9.64659 4.00484C9.34911 4.0327 9.07471 4.17945 8.88375 4.41282L3.25875 11.2694C3.22091 11.3239 3.18706 11.3812 3.1575 11.4408C3.1575 11.4979 3.1575 11.5322 3.07875 11.5893C3.02776 11.7203 3.00106 11.8598 3 12.0007C3.00106 12.1416 3.02776 12.2811 3.07875 12.4121C3.07875 12.4692 3.07875 12.5035 3.1575 12.5607C3.18706 12.6202 3.22091 12.6775 3.25875 12.7321L8.88375 19.5886C8.98952 19.7176 9.12198 19.8213 9.2717 19.8924C9.42142 19.9635 9.58473 20.0003 9.75 20C10.0129 20.0005 10.2676 19.9075 10.47 19.7372C10.5839 19.6412 10.6781 19.5234 10.7471 19.3905C10.8161 19.2575 10.8586 19.112 10.8722 18.9623C10.8858 18.8127 10.8702 18.6617 10.8263 18.5182C10.7823 18.3747 10.711 18.2414 10.6163 18.1259L6.5325 13.1435H19.875C20.1734 13.1435 20.4595 13.0231 20.6705 12.8088C20.8815 12.5945 21 12.3038 21 12.0007C21 11.6976 20.8815 11.407 20.6705 11.1927C20.4595 10.9784 20.1734 10.858 19.875 10.858Z" fill="#004182"/>
</svg>
